<?xml version="1.0" encoding="UTF-8"?>
<!DOCTYPE svg PUBLIC "-//W3C//DTD SVG 1.1//EN" "http://www.w3.org/Graphics/SVG/1.1/DTD/svg11.dtd">
<!-- Creator: CorelDRAW 2020 (64-Bit) -->
<svg xmlns="http://www.w3.org/2000/svg" xml:space="preserve" width="25.6938mm" height="25.719mm" version="1.1" style="shape-rendering:geometricPrecision; text-rendering:geometricPrecision; image-rendering:optimizeQuality; fill-rule:evenodd; clip-rule:evenodd"
viewBox="0 0 465.08 465.53"
 xmlns:xlink="http://www.w3.org/1999/xlink"
 xmlns:xodm="http://www.corel.com/coreldraw/odm/2003">
 <defs>
  <style type="text/css">
   <![CDATA[
    .fil0 {fill:black}
   ]]>
  </style>
 </defs>
 <g id="Layer_x0020_1">
  <metadata id="CorelCorpID_0Corel-Layer"/>
  <path class="fil0" d="M346.99 298.59c47.36,0 89.74,-21.3 118.09,-54.84 -8.16,123.88 -109.03,221.78 -232.27,221.78 -128.57,0 -232.8,-106.56 -232.8,-238.01 0,-107.05 69.13,-197.6 164.24,-227.52 -66.57,131.77 6.14,298.59 182.75,298.59zm48.09 33.32c-21.71,60.4 -95.66,102.36 -162.28,102.36 -209.75,0 -257.78,-274.83 -119.17,-358.06 -21.42,70.6 16.72,159.83 74.44,206.21 47.65,38.29 140.59,56.61 207.01,49.48z"/>
 </g>
</svg>
