<?xml version="1.0" encoding="UTF-8"?>
<!DOCTYPE svg PUBLIC "-//W3C//DTD SVG 1.1//EN" "http://www.w3.org/Graphics/SVG/1.1/DTD/svg11.dtd">
<!-- Creator: CorelDRAW 2020 (64-Bit) -->
<svg xmlns="http://www.w3.org/2000/svg" xml:space="preserve" width="11.8532mm" height="11.8267mm" version="1.1" style="shape-rendering:geometricPrecision; text-rendering:geometricPrecision; image-rendering:optimizeQuality; fill-rule:evenodd; clip-rule:evenodd"
viewBox="0 0 98.98 98.76"
 xmlns:xlink="http://www.w3.org/1999/xlink"
 xmlns:xodm="http://www.corel.com/coreldraw/odm/2003">
 <defs>
  <style type="text/css">
   <![CDATA[
    .fil0 {fill:black}
   ]]>
  </style>
 </defs>
 <g id="Layer_x0020_1">
  <metadata id="CorelCorpID_0Corel-Layer"/>
  <path class="fil0" d="M86.12 16.39l12.86 -12.86 0 35.13 -12.78 0 -22.34 0 14.45 -14.45c-7.03,-8.07 -17.38,-13.17 -28.92,-13.17 -21.17,0 -38.33,17.16 -38.33,38.33 0,21.17 17.16,38.33 38.33,38.33 19.54,0 34.8,-14.63 37.18,-33.52l11.97 0.01c-2.42,25.01 -23.5,44.55 -49.15,44.55 -27.27,0 -49.38,-22.11 -49.38,-49.38 0,-27.27 22.11,-49.38 49.38,-49.38 14.59,0 27.7,6.33 36.74,16.39z"/>
 </g>
</svg>
