<?xml version="1.0" encoding="UTF-8"?>
<!DOCTYPE svg PUBLIC "-//W3C//DTD SVG 1.1//EN" "http://www.w3.org/Graphics/SVG/1.1/DTD/svg11.dtd">
<!-- Creator: CorelDRAW 2020 (64-Bit) -->
<svg xmlns="http://www.w3.org/2000/svg" xml:space="preserve" width="11.8532mm" height="11.8267mm" version="1.1" style="shape-rendering:geometricPrecision; text-rendering:geometricPrecision; image-rendering:optimizeQuality; fill-rule:evenodd; clip-rule:evenodd"
viewBox="0 0 31.14 31.07"
 xmlns:xlink="http://www.w3.org/1999/xlink"
 xmlns:xodm="http://www.corel.com/coreldraw/odm/2003">
 <defs>
  <style type="text/css">
   <![CDATA[
    .fil0 {fill:white}
   ]]>
  </style>
 </defs>
 <g id="Layer_x0020_1">
  <metadata id="CorelCorpID_0Corel-Layer"/>
  <path class="fil0" d="M27.09 5.16l4.04 -4.04 0 11.05 -4.02 0 -7.03 0 4.55 -4.55c-2.21,-2.54 -5.47,-4.14 -9.1,-4.14 -6.66,0 -12.06,5.4 -12.06,12.06 0,6.66 5.4,12.06 12.06,12.06 6.15,0 10.95,-4.6 11.7,-10.54l3.77 0c-0.76,7.87 -7.39,14.02 -15.46,14.02 -8.58,0 -15.53,-6.95 -15.53,-15.53 0,-8.58 6.95,-15.53 15.53,-15.53 4.59,0 8.72,1.99 11.56,5.16z"/>
 </g>
</svg>
