<?xml version="1.0" encoding="UTF-8"?>
<!DOCTYPE svg PUBLIC "-//W3C//DTD SVG 1.1//EN" "http://www.w3.org/Graphics/SVG/1.1/DTD/svg11.dtd">
<!-- Creator: CorelDRAW 2020 (64-Bit) -->
<svg xmlns="http://www.w3.org/2000/svg" xml:space="preserve" width="46.7506mm" height="46.9915mm" version="1.1" style="shape-rendering:geometricPrecision; text-rendering:geometricPrecision; image-rendering:optimizeQuality; fill-rule:evenodd; clip-rule:evenodd"
viewBox="0 0 446.37 448.67"
 xmlns:xlink="http://www.w3.org/1999/xlink"
 xmlns:xodm="http://www.corel.com/coreldraw/odm/2003">
 <defs>
  <style type="text/css">
   <![CDATA[
    .str0 {stroke:white;stroke-width:38.19;stroke-linecap:round;stroke-linejoin:round;stroke-miterlimit:22.9256}
    .fil0 {fill:none}
    .fil1 {fill:white}
   ]]>
  </style>
 </defs>
 <g id="Layer_x0020_1">
  <metadata id="CorelCorpID_0Corel-Layer"/>
  <g id="_2575626077984">
   <g>
    <path class="fil0 str0" d="M223.18 337.77c61.25,0 110.91,-49.65 110.91,-110.91 0,-61.25 -49.65,-110.91 -110.91,-110.91 -61.25,0 -110.91,49.65 -110.91,110.91 0,61.25 49.65,110.91 110.91,110.91z"/>
   </g>
   <polygon class="fil1" points="200.45,389.29 245.92,389.29 245.92,448.67 200.45,448.67 "/>
   <polygon class="fil1" points="200.45,0 245.92,0 245.92,59.38 200.45,59.38 "/>
   <polygon class="fil1" points="59.38,204.13 59.38,249.6 -0,249.6 -0,204.13 "/>
   <polygon class="fil1" points="446.37,204.13 446.37,249.6 386.99,249.6 386.99,204.13 "/>
   <polygon class="fil1" points="52.47,81.35 84.63,49.2 126.61,91.18 94.46,123.34 "/>
   <polygon class="fil1" points="393.89,81.35 361.74,49.2 319.75,91.18 351.91,123.34 "/>
   <polygon class="fil1" points="52.47,372.37 84.63,404.52 126.61,362.54 94.46,330.39 "/>
   <polygon class="fil1" points="393.89,372.37 361.74,404.52 319.75,362.54 351.91,330.39 "/>
  </g>
 </g>
</svg>
