<?xml version="1.0" encoding="UTF-8"?>
<!DOCTYPE svg PUBLIC "-//W3C//DTD SVG 1.1//EN" "http://www.w3.org/Graphics/SVG/1.1/DTD/svg11.dtd">
<!-- Creator: CorelDRAW 2020 (64-Bit) -->
<svg xmlns="http://www.w3.org/2000/svg" xml:space="preserve" width="67.9458mm" height="66.6789mm" version="1.1" style="shape-rendering:geometricPrecision; text-rendering:geometricPrecision; image-rendering:optimizeQuality; fill-rule:evenodd; clip-rule:evenodd"
viewBox="0 0 6845.76 6718.12"
 xmlns:xlink="http://www.w3.org/1999/xlink"
 xmlns:xodm="http://www.corel.com/coreldraw/odm/2003">
 <defs>
  <style type="text/css">
   <![CDATA[
    .fil0 {fill:black}
   ]]>
  </style>
 </defs>
 <g id="Layer_x0020_1">
  <metadata id="CorelCorpID_0Corel-Layer"/>
  <g id="_2571278249792">
   <g id="_1972905800800">
    <path class="fil0" d="M5835.48 6718.12l1010.18 -930.22 0 -2747.44 -6845.66 0 0 2747.44 1010.18 930.22c847.21,0 1593.82,-9.06 2412.71,-9.06 818.9,0 1565.38,9.06 2412.72,9.06l-0.13 0zm-3091.35 -2311.35l1357.39 0c40.67,-472.83 437.38,-843.9 920.66,-843.9 510.45,0 924.23,413.78 924.23,924.23 0,510.45 -413.78,924.23 -924.23,924.23 -485.71,0 -883.81,-374.64 -921.3,-850.66l-1356.24 0c-37.49,476.02 -435.6,850.66 -921.3,850.66 -510.45,0 -924.23,-413.78 -924.23,-924.23 0,-510.45 413.78,-924.23 924.23,-924.23 483.41,0 879.99,371.07 920.66,843.9l0.12 0z"/>
    <g>
     <path class="fil0" d="M958.53 674.4c311.14,-269.44 682.59,-470.79 1090.64,-580.45l0 918.88c0,0 -14.92,262.68 513.89,556.22l0 1192.78 -2563.06 0c0,-649.05 226.85,-1247.61 605.32,-1720.44 350.16,64.27 388.28,244.96 388.28,244.96 0,200.33 -12.11,370.43 30.73,516.44 42.47,144.73 139.12,266 355.14,369.79 204.16,98.06 439.93,60.06 667.16,60.06l2.68 -445.79c0,0 -117.44,-1.78 -239.98,2.17 -530.97,17.09 -273.26,-249.04 -397.21,-702.61 -53.3,-294.43 -453.57,-412.13 -453.57,-412.13l-0.01 0.13zm4882.69 2087.43c18.74,-400.66 -291.37,-748.39 -697.77,-748.39 -385.86,0 -698.65,319.3 -698.65,713.32 0,11.73 0.25,23.47 0.9,35.06l1395.53 0 -0.01 0zm-3320.36 -2751.27l0 948.59c417.23,223.28 471.68,593.97 471.68,593.97l0 1208.6 1041.79 0c-0.38,-11.61 -0.51,-23.33 -0.51,-35.06 0,-625.72 496.8,-1132.97 1109.64,-1132.97 612.84,0 1109.64,507.25 1109.64,1132.97 0,11.73 -0.13,23.47 -0.51,35.06l593.21 0c0,-632.1 -215.25,-1216.37 -575.99,-1683.07l-49.98 28.95 -853.08 0 0 -406.52 551 0c-315.1,-280.79 -694.32,-490.93 -1112.19,-604.8 137.72,514.14 -113.11,822.48 -269.44,906.51 -334.35,179.79 -811.26,101.38 -811.26,80.21l0 -403.72c755.4,0 652.5,7.14 643.7,-664.61 -93.47,-9.69 -188.34,-14.66 -284.36,-14.66l-1322.2 0c-81.1,0 -161.56,3.57 -240.88,10.46l-0.25 0.1zm0 0l0 0 0 0z"/>
    </g>
   </g>
  </g>
 </g>
</svg>
